<?xml version="1.0" encoding="UTF-8"?>
<svg id="Layer_2" data-name="Layer 2" xmlns="http://www.w3.org/2000/svg" viewBox="0 0 331.21 329.09">
  <defs>
    <style>
      .cls-1 {
        fill: #bfa021;
      }

      .cls-1, .cls-2 {
        stroke-width: 0px;
      }

      .cls-2 {
        fill: #f9f43d;
      }
    </style>
  </defs>
  <g id="Layer_1-2" data-name="Layer 1">
    <g>
      <path class="cls-2" d="M200.08,124.2l94.48,94.48c-25.05,25.05-59.06,39.13-94.48,39.13-73.3,0-133.61-60.32-133.61-133.61,0-35.42,14.09-69.43,39.13-94.48l94.48,94.48Z"/>
      <ellipse class="cls-1" cx="200.08" cy="124.2" rx="61.18" ry="133.61" transform="translate(-29.22 177.85) rotate(-45)"/>
      <path class="cls-2" d="M171.08,329.05c-.65-.09-1.31-.19-1.96-.29-2.46-.38-4.13-2.72-3.7-5.17l5.58-31.63c.42-2.38,2.67-3.98,5.06-3.62.04,0,.07.01.11.02,2.4.35,4.08,2.53,3.79,4.94l-3.85,31.88c-.3,2.48-2.57,4.23-5.04,3.88ZM247.7,320.85l-7.69-31.18c-.58-2.35.83-4.72,3.16-5.36.03,0,.06-.02.1-.03,2.33-.65,4.76.66,5.47,2.98l9.4,30.71c.73,2.38-.64,4.91-3.04,5.59-.64.18-1.28.36-1.92.53-2.41.65-4.88-.81-5.48-3.24ZM91.97,299.9c-.55-.34-1.09-.69-1.63-1.04-2.1-1.36-2.69-4.17-1.29-6.25l18.02-26.58c1.36-2,4.06-2.54,6.1-1.24.03.02.07.04.1.06,2.04,1.3,2.69,3.98,1.44,6.06l-16.54,27.53c-1.29,2.15-4.09,2.8-6.21,1.46ZM321.77,284.84l-19.75-25.33c-1.49-1.91-1.17-4.65.7-6.19.03-.02.06-.05.09-.07,1.87-1.54,4.62-1.33,6.21.49l21.09,24.22c1.64,1.89,1.4,4.75-.53,6.36-.49.41-.98.81-1.48,1.22-1.94,1.58-4.8,1.28-6.34-.7ZM31.64,241.14c-.36-.53-.71-1.06-1.06-1.6-1.37-2.09-.77-4.91,1.35-6.23l27.24-17.01c2.05-1.28,4.74-.68,6.08,1.34.02.03.04.06.06.09,1.34,2.02.85,4.73-1.13,6.12l-26.28,18.47c-2.05,1.44-4.87.9-6.27-1.18ZM.38,162.93c-.11-.65-.22-1.31-.33-1.96-.4-2.46,1.32-4.77,3.79-5.11l31.81-4.4c2.4-.33,4.61,1.32,5,3.71,0,.04.01.07.02.11.4,2.39-1.16,4.66-3.53,5.13l-31.52,6.13c-2.45.48-4.82-1.15-5.24-3.61ZM38.26,91.37l-31.31-7.15c-2.43-.55-3.94-3-3.33-5.42.16-.64.33-1.29.5-1.93.63-2.41,3.14-3.82,5.53-3.14l30.87,8.86c2.33.67,3.68,3.07,3.07,5.42,0,.03-.02.07-.03.1-.6,2.35-2.95,3.8-5.31,3.26ZM67.34,28.82l-25.66-19.31c-2-1.51-2.36-4.36-.81-6.33.4-.5.8-1.01,1.2-1.51,1.57-1.95,4.43-2.25,6.35-.63l24.58,20.68c1.85,1.56,2.11,4.3.6,6.2-.02.03-.05.06-.07.09-1.51,1.9-4.24,2.26-6.17.81Z"/>
    </g>
  </g>
</svg>