<?xml version="1.0" encoding="UTF-8"?>
<svg id="Layer_2" data-name="Layer 2" xmlns="http://www.w3.org/2000/svg" xmlns:xlink="http://www.w3.org/1999/xlink" viewBox="0 0 2401.2 1477.82">
  <defs>
    <style>
      .cls-1 {
        fill: url(#New_Pattern);
      }

      .cls-1, .cls-2, .cls-3 {
        stroke-width: 0px;
      }

      .cls-2 {
        fill: none;
      }

      .cls-3 {
        fill: #9da7c9;
      }
    </style>
    <pattern id="New_Pattern" data-name="New Pattern" x="0" y="0" width="1595" height="1370" patternTransform="translate(5242.82 -219.6)" patternUnits="userSpaceOnUse" viewBox="0 0 1595 1370">
      <g>
        <rect class="cls-2" width="1595" height="1370"/>
        <g>
          <circle class="cls-3" cx="1333.43" cy="1374.85" r="5.08"/>
          <circle class="cls-3" cx="1572.39" cy="1369.78" r="5.08"/>
        </g>
        <g>
          <circle class="cls-3" cx="376.43" cy="1320.05" r="5.08"/>
          <circle class="cls-3" cx="615.39" cy="1314.98" r="5.08"/>
        </g>
        <g>
          <circle class="cls-3" cx="1333.43" cy="1100.85" r="5.08"/>
          <circle class="cls-3" cx="1572.39" cy="1095.78" r="5.08"/>
          <circle class="cls-3" cx="1474.2" cy="1221.95" r="5.08"/>
        </g>
        <g>
          <circle class="cls-3" cx="1014.43" cy="1265.25" r="5.08"/>
          <circle class="cls-3" cx="1253.39" cy="1260.18" r="5.08"/>
        </g>
        <g>
          <circle class="cls-3" cx="695.43" cy="1155.65" r="5.08"/>
          <circle class="cls-3" cx="934.39" cy="1150.58" r="5.08"/>
          <circle class="cls-3" cx="836.2" cy="1276.75" r="5.08"/>
        </g>
        <g>
          <circle class="cls-3" cx="376.43" cy="1046.05" r="5.08"/>
          <circle class="cls-3" cx="615.39" cy="1040.98" r="5.08"/>
          <circle class="cls-3" cx="517.2" cy="1167.15" r="5.08"/>
        </g>
        <g>
          <circle class="cls-3" cx="57.43" cy="1210.45" r="5.08"/>
          <circle class="cls-3" cx="296.39" cy="1205.38" r="5.08"/>
          <circle class="cls-3" cx="198.2" cy="1331.55" r="5.08"/>
        </g>
        <g>
          <circle class="cls-3" cx="1333.43" cy="826.85" r="5.08"/>
          <circle class="cls-3" cx="1572.39" cy="821.78" r="5.08"/>
          <circle class="cls-3" cx="1474.2" cy="947.95" r="5.08"/>
        </g>
        <g>
          <circle class="cls-3" cx="1014.43" cy="991.25" r="5.08"/>
          <circle class="cls-3" cx="1253.39" cy="986.18" r="5.08"/>
          <circle class="cls-3" cx="1155.2" cy="1112.35" r="5.08"/>
        </g>
        <g>
          <circle class="cls-3" cx="695.43" cy="881.65" r="5.08"/>
          <circle class="cls-3" cx="934.39" cy="876.58" r="5.08"/>
          <circle class="cls-3" cx="836.2" cy="1002.75" r="5.08"/>
        </g>
        <g>
          <circle class="cls-3" cx="376.43" cy="772.05" r="5.08"/>
          <circle class="cls-3" cx="615.39" cy="766.98" r="5.08"/>
          <circle class="cls-3" cx="517.2" cy="893.15" r="5.08"/>
        </g>
        <g>
          <circle class="cls-3" cx="57.43" cy="936.45" r="5.08"/>
          <circle class="cls-3" cx="296.39" cy="931.38" r="5.08"/>
          <circle class="cls-3" cx="198.2" cy="1057.55" r="5.08"/>
        </g>
        <g>
          <circle class="cls-3" cx="1333.43" cy="552.85" r="5.08"/>
          <circle class="cls-3" cx="1572.39" cy="547.78" r="5.08"/>
          <circle class="cls-3" cx="1474.2" cy="673.95" r="5.08"/>
        </g>
        <g>
          <circle class="cls-3" cx="1014.43" cy="717.25" r="5.08"/>
          <circle class="cls-3" cx="1253.39" cy="712.18" r="5.08"/>
          <circle class="cls-3" cx="1155.2" cy="838.35" r="5.08"/>
        </g>
        <g>
          <circle class="cls-3" cx="695.43" cy="607.65" r="5.08"/>
          <circle class="cls-3" cx="934.39" cy="602.58" r="5.08"/>
          <circle class="cls-3" cx="836.2" cy="728.75" r="5.08"/>
        </g>
        <g>
          <circle class="cls-3" cx="376.43" cy="498.05" r="5.08"/>
          <circle class="cls-3" cx="615.39" cy="492.98" r="5.08"/>
          <circle class="cls-3" cx="517.2" cy="619.15" r="5.08"/>
        </g>
        <g>
          <circle class="cls-3" cx="57.43" cy="662.45" r="5.08"/>
          <circle class="cls-3" cx="296.39" cy="657.38" r="5.08"/>
          <circle class="cls-3" cx="198.2" cy="783.55" r="5.08"/>
        </g>
        <g>
          <circle class="cls-3" cx="1333.43" cy="278.85" r="5.08"/>
          <circle class="cls-3" cx="1572.39" cy="273.78" r="5.08"/>
          <circle class="cls-3" cx="1474.2" cy="399.95" r="5.08"/>
        </g>
        <g>
          <circle class="cls-3" cx="1014.43" cy="443.25" r="5.08"/>
          <circle class="cls-3" cx="1253.39" cy="438.18" r="5.08"/>
          <circle class="cls-3" cx="1155.2" cy="564.35" r="5.08"/>
        </g>
        <g>
          <circle class="cls-3" cx="695.43" cy="333.65" r="5.08"/>
          <circle class="cls-3" cx="934.39" cy="328.58" r="5.08"/>
          <circle class="cls-3" cx="836.2" cy="454.75" r="5.08"/>
        </g>
        <g>
          <circle class="cls-3" cx="376.43" cy="224.05" r="5.08"/>
          <circle class="cls-3" cx="615.39" cy="218.98" r="5.08"/>
          <circle class="cls-3" cx="517.2" cy="345.15" r="5.08"/>
        </g>
        <g>
          <circle class="cls-3" cx="57.43" cy="388.45" r="5.08"/>
          <circle class="cls-3" cx="296.39" cy="383.38" r="5.08"/>
          <circle class="cls-3" cx="198.2" cy="509.55" r="5.08"/>
        </g>
        <g>
          <circle class="cls-3" cx="1333.43" cy="4.85" r="5.08"/>
          <circle class="cls-3" cx="1572.39" cy="-.22" r="5.08"/>
          <circle class="cls-3" cx="1474.2" cy="125.95" r="5.08"/>
        </g>
        <g>
          <circle class="cls-3" cx="1014.43" cy="169.25" r="5.08"/>
          <circle class="cls-3" cx="1253.39" cy="164.18" r="5.08"/>
          <circle class="cls-3" cx="1155.2" cy="290.35" r="5.08"/>
        </g>
        <g>
          <circle class="cls-3" cx="695.43" cy="59.65" r="5.08"/>
          <circle class="cls-3" cx="934.39" cy="54.58" r="5.08"/>
          <circle class="cls-3" cx="836.2" cy="180.75" r="5.08"/>
        </g>
        <circle class="cls-3" cx="517.2" cy="71.15" r="5.08"/>
        <g>
          <circle class="cls-3" cx="57.43" cy="114.45" r="5.08"/>
          <circle class="cls-3" cx="296.39" cy="109.38" r="5.08"/>
          <circle class="cls-3" cx="198.2" cy="235.55" r="5.08"/>
        </g>
        <circle class="cls-3" cx="1155.2" cy="16.35" r="5.08"/>
      </g>
    </pattern>
  </defs>
  <g id="Layer_1-2" data-name="Layer 1">
    <rect class="cls-1" width="2401.2" height="1477.82"/>
  </g>
</svg>