<?xml version="1.0" encoding="UTF-8"?>
<svg id="Layer_2" data-name="Layer 2" xmlns="http://www.w3.org/2000/svg" viewBox="0 0 307.16 302.63">
  <defs>
    <style>
      .cls-1 {
        fill: #f9f43d;
        stroke-width: 0px;
      }
    </style>
  </defs>
  <g id="Layer_1-2" data-name="Layer 1">
    <g>
      <path class="cls-1" d="M103.94,65.08c-35.42,0-69.43,14.09-94.48,39.13-23.89,23.89-.96,85.56,51.22,137.74,52.18,52.18,113.85,75.11,137.74,51.22,25.05-25.05,39.13-59.06,39.13-94.48,0-73.3-60.32-133.61-133.61-133.61Z"/>
      <path class="cls-1" d="M279.41,295.66l-28.31-15.16c-2.13-1.14-2.95-3.78-1.86-5.94.02-.03.03-.07.05-.1,1.08-2.17,3.68-3.09,5.87-2.07l29.11,13.57c2.27,1.06,3.21,3.78,2.1,6.02-.29.58-.58,1.16-.87,1.74-1.13,2.24-3.87,3.11-6.08,1.93ZM255,142.94s-.02-.05-.03-.08c-.89-2.25.15-4.8,2.38-5.76l29.53-12.62c2.29-.98,4.95.11,5.88,2.42.24.61.49,1.22.72,1.83.91,2.32-.29,4.94-2.63,5.79l-30.17,10.99c-2.28.83-4.78-.32-5.67-2.57ZM217.85,86.97s-.06-.05-.08-.08c-1.73-1.7-1.81-4.45-.16-6.22l21.86-23.53c1.71-1.83,4.58-1.89,6.38-.15.46.45.92.9,1.37,1.35,1.78,1.76,1.78,4.64-.03,6.38l-23.11,22.3c-1.74,1.68-4.5,1.65-6.23-.05ZM23.94,57.21l-15.64-28.05c-1.22-2.19-.39-4.94,1.83-6.11.56-.3,1.13-.59,1.7-.89,2.23-1.15,4.96-.26,6.06,1.99l14.08,28.87c1.06,2.18.18,4.79-1.97,5.91-.03.01-.06.03-.08.04-2.15,1.12-4.79.35-5.97-1.76ZM161.19,50.86s-.08-.03-.12-.04c-2.27-.85-3.47-3.33-2.68-5.62l10.39-30.39c.81-2.36,3.4-3.6,5.74-2.74.63.23,1.26.47,1.89.7,2.33.88,3.47,3.52,2.54,5.83l-12.04,29.77c-.91,2.24-3.44,3.34-5.71,2.49ZM89.85,36.95l-2.82-31.99c-.22-2.48,1.64-4.67,4.13-4.83.66-.04,1.31-.08,1.97-.12,2.49-.14,4.6,1.81,4.69,4.3l1.09,32.09c.08,2.42-1.79,4.45-4.21,4.59-.04,0-.08,0-.12,0-2.42.15-4.52-1.64-4.73-4.05ZM266.15,209.26s0-.06,0-.09c.11-2.42,2.11-4.32,4.53-4.27l32.11.61c2.49.05,4.47,2.13,4.37,4.62-.03.66-.06,1.31-.09,1.97-.13,2.49-2.29,4.38-4.78,4.2l-32.03-2.37c-2.41-.18-4.23-2.25-4.11-4.67Z"/>
    </g>
  </g>
</svg>